<svg xmlns="http://www.w3.org/2000/svg" viewBox="13.25 9.25 997.11 493.5" width="997.11" height="493.5" role="img" aria-label="GZL, graph zeta library"><title>GZL, graph zeta library</title><defs><linearGradient id="silver-edge" gradientUnits="userSpaceOnUse" x1="70" y1="66" x2="374" y2="446"><stop offset="0" stop-color="#B3BCC7"/><stop offset="0.45" stop-color="#838E9C"/><stop offset="0.75" stop-color="#626C7A"/><stop offset="1" stop-color="#525B68"/></linearGradient><linearGradient id="silver-ring" x1="0.3" y1="0" x2="0.7" y2="1"><stop offset="0" stop-color="#C9D0D9"/><stop offset="0.42" stop-color="#9AA4B1"/><stop offset="0.5" stop-color="#6A7483"/><stop offset="0.78" stop-color="#4E5765"/><stop offset="1" stop-color="#8A94A1"/></linearGradient><radialGradient id="silver-sphere" cx="0.38" cy="0.32" r="0.72" fx="0.34" fy="0.28"><stop offset="0" stop-color="#FFFFFF"/><stop offset="0.3" stop-color="#D4D9DF"/><stop offset="0.7" stop-color="#7F8996"/><stop offset="0.92" stop-color="#4F5866"/><stop offset="1" stop-color="#7B8592"/></radialGradient><linearGradient id="g-front" gradientUnits="userSpaceOnUse" x1="320.66" y1="328.29" x2="156.93" y2="133.16"><stop offset="0.0000" stop-color="#ffffff"/><stop offset="0.0208" stop-color="#ffffff"/><stop offset="0.0417" stop-color="#ffffff"/><stop offset="0.0625" stop-color="#ffffff"/><stop offset="0.0833" stop-color="#ffffff"/><stop offset="0.1042" stop-color="#ffffff"/><stop offset="0.1250" stop-color="#ffffff"/><stop offset="0.1458" stop-color="#ffffff"/><stop offset="0.1667" stop-color="#ffffff"/><stop offset="0.1875" stop-color="#ffffff"/><stop offset="0.2083" stop-color="#ffffff"/><stop offset="0.2292" stop-color="#ffffff"/><stop offset="0.2500" stop-color="#fefefe"/><stop offset="0.2708" stop-color="#fbfbfb"/><stop offset="0.2917" stop-color="#f8f8f8"/><stop offset="0.3125" stop-color="#f5f5f5"/><stop offset="0.3333" stop-color="#f1f1f1"/><stop offset="0.3542" stop-color="#ededed"/><stop offset="0.3750" stop-color="#e8e8e8"/><stop offset="0.3958" stop-color="#e4e4e4"/><stop offset="0.4167" stop-color="#dfdfdf"/><stop offset="0.4375" stop-color="#dbdbdb"/><stop offset="0.4583" stop-color="#d6d6d6"/><stop offset="0.4792" stop-color="#c5c5c5"/><stop offset="0.5000" stop-color="#666666"/><stop offset="0.5208" stop-color="#0b0b0b"/><stop offset="0.5417" stop-color="#000000"/><stop offset="0.5625" stop-color="#000000"/><stop offset="0.5833" stop-color="#000000"/><stop offset="0.6042" stop-color="#000000"/><stop offset="0.6250" stop-color="#000000"/><stop offset="0.6458" stop-color="#000000"/><stop offset="0.6667" stop-color="#000000"/><stop offset="0.6875" stop-color="#000000"/><stop offset="0.7083" stop-color="#000000"/><stop offset="0.7292" stop-color="#000000"/><stop offset="0.7500" stop-color="#000000"/><stop offset="0.7708" stop-color="#000000"/><stop offset="0.7917" stop-color="#000000"/><stop offset="0.8125" stop-color="#000000"/><stop offset="0.8333" stop-color="#000000"/><stop offset="0.8542" stop-color="#000000"/><stop offset="0.8750" stop-color="#000000"/><stop offset="0.8958" stop-color="#000000"/><stop offset="0.9167" stop-color="#000000"/><stop offset="0.9375" stop-color="#000000"/><stop offset="0.9583" stop-color="#000000"/><stop offset="0.9792" stop-color="#000000"/><stop offset="1.0000" stop-color="#000000"/></linearGradient><linearGradient id="g-back" gradientUnits="userSpaceOnUse" x1="320.66" y1="328.29" x2="156.93" y2="133.16"><stop offset="0.0000" stop-color="#000000"/><stop offset="0.0208" stop-color="#000000"/><stop offset="0.0417" stop-color="#000000"/><stop offset="0.0625" stop-color="#000000"/><stop offset="0.0833" stop-color="#000000"/><stop offset="0.1042" stop-color="#000000"/><stop offset="0.1250" stop-color="#000000"/><stop offset="0.1458" stop-color="#000000"/><stop offset="0.1667" stop-color="#000000"/><stop offset="0.1875" stop-color="#000000"/><stop offset="0.2083" stop-color="#000000"/><stop offset="0.2292" stop-color="#000000"/><stop offset="0.2500" stop-color="#000000"/><stop offset="0.2708" stop-color="#000000"/><stop offset="0.2917" stop-color="#000000"/><stop offset="0.3125" stop-color="#000000"/><stop offset="0.3333" stop-color="#000000"/><stop offset="0.3542" stop-color="#000000"/><stop offset="0.3750" stop-color="#000000"/><stop offset="0.3958" stop-color="#000000"/><stop offset="0.4167" stop-color="#000000"/><stop offset="0.4375" stop-color="#000000"/><stop offset="0.4583" stop-color="#000000"/><stop offset="0.4792" stop-color="#0b0b0b"/><stop offset="0.5000" stop-color="#666666"/><stop offset="0.5208" stop-color="#bbbbbb"/><stop offset="0.5417" stop-color="#c0c0c0"/><stop offset="0.5625" stop-color="#bbbbbb"/><stop offset="0.5833" stop-color="#b5b5b5"/><stop offset="0.6042" stop-color="#afafaf"/><stop offset="0.6250" stop-color="#a9a9a9"/><stop offset="0.6458" stop-color="#a3a3a3"/><stop offset="0.6667" stop-color="#9d9d9d"/><stop offset="0.6875" stop-color="#979797"/><stop offset="0.7083" stop-color="#919191"/><stop offset="0.7292" stop-color="#8a8a8a"/><stop offset="0.7500" stop-color="#848484"/><stop offset="0.7708" stop-color="#808080"/><stop offset="0.7917" stop-color="#808080"/><stop offset="0.8125" stop-color="#808080"/><stop offset="0.8333" stop-color="#808080"/><stop offset="0.8542" stop-color="#808080"/><stop offset="0.8750" stop-color="#808080"/><stop offset="0.8958" stop-color="#808080"/><stop offset="0.9167" stop-color="#808080"/><stop offset="0.9375" stop-color="#808080"/><stop offset="0.9583" stop-color="#808080"/><stop offset="0.9792" stop-color="#808080"/><stop offset="1.0000" stop-color="#808080"/></linearGradient><filter id="blur-wide" filterUnits="userSpaceOnUse" x="-200" y="-200" width="920" height="1058"><feGaussianBlur stdDeviation="12"/></filter><filter id="blur-mid" filterUnits="userSpaceOnUse" x="-200" y="-200" width="920" height="1058"><feGaussianBlur stdDeviation="3.5"/></filter><mask id="m-back" maskUnits="userSpaceOnUse" x="0" y="0" width="520" height="658"><rect width="520" height="658" fill="url(#g-back)"/><g stroke="#000" fill="none" stroke-width="16.5"><line x1="260" y1="66" x2="137.87" y2="110.45"/><line x1="137.87" y1="110.45" x2="72.89" y2="223.01"/><line x1="72.89" y1="223.01" x2="95.46" y2="351"/><line x1="95.46" y1="351" x2="195.02" y2="434.54"/><line x1="195.02" y1="434.54" x2="324.98" y2="434.54"/><line x1="324.98" y1="434.54" x2="424.54" y2="351"/><line x1="424.54" y1="351" x2="447.11" y2="223.01"/><line x1="447.11" y1="223.01" x2="382.13" y2="110.45"/><line x1="382.13" y1="110.45" x2="260" y2="66"/></g><g stroke="#000" fill="#000"><circle cx="260" cy="66" r="18" fill="none" stroke-width="16.5"/><circle cx="137.87" cy="110.45" r="18" fill="none" stroke-width="16.5"/><circle cx="72.89" cy="223.01" r="18" fill="none" stroke-width="16.5"/><circle cx="95.46" cy="351" r="18" fill="none" stroke-width="16.5"/><circle cx="195.02" cy="434.54" r="18" fill="none" stroke-width="16.5"/><circle cx="324.98" cy="434.54" r="18" fill="none" stroke-width="16.5"/><circle cx="424.54" cy="351" r="18" fill="none" stroke-width="16.5"/><circle cx="447.11" cy="223.01" r="18" fill="none" stroke-width="16.5"/><circle cx="382.13" cy="110.45" r="18" fill="none" stroke-width="16.5"/></g></mask><mask id="m-back-soft" maskUnits="userSpaceOnUse" x="0" y="0" width="520" height="658"><rect width="520" height="658" fill="url(#g-back)"/></mask><mask id="m-front" maskUnits="userSpaceOnUse" x="0" y="0" width="520" height="658"><rect width="520" height="658" fill="url(#g-front)"/></mask><radialGradient id="shine"><stop offset="0" stop-color="#FFB3BF" stop-opacity="0.38"/><stop offset="0.16" stop-color="#C8102E" stop-opacity="0.32"/><stop offset="0.45" stop-color="#F0284A" stop-opacity="0.10"/><stop offset="1" stop-color="#F0284A" stop-opacity="0"/></radialGradient><radialGradient id="lit"><stop offset="0.35" stop-color="#FFB3BF" stop-opacity="0.23"/><stop offset="1" stop-color="#C8102E" stop-opacity="0"/></radialGradient><linearGradient id="word" gradientUnits="userSpaceOnUse" x1="0" y1="158.48" x2="0" y2="286.13"><stop offset="0" stop-color="#3B4452"/><stop offset="1" stop-color="#1E252F"/></linearGradient></defs><g id="hop-back"><g mask="url(#m-back-soft)"><path fill-rule="evenodd" d="M89.28 360.75A198.11 78.86 -40 1 0 392.81 106.06A198.11 78.86 -40 1 0 89.28 360.75ZM101.63 341.25A176.11 55.86 -40 1 0 371.45 114.84A176.11 55.86 -40 1 0 101.63 341.25Z" fill="#F0284A" opacity="0.23" filter="url(#blur-wide)"/><path fill-rule="evenodd" d="M92.86 355.3A191.86 72.24 -40 1 0 386.81 108.64A191.86 72.24 -40 1 0 92.86 355.3ZM98.05 346.7A182.36 62.49 -40 1 0 377.45 112.26A182.36 62.49 -40 1 0 98.05 346.7Z" fill="#C8102E" opacity="0.40" filter="url(#blur-mid)"/></g><g mask="url(#m-back)"><path fill-rule="evenodd" d="M94.01 353.48A189.81 70.14 -40 1 0 384.82 109.46A189.81 70.14 -40 1 0 94.01 353.48ZM96.9 348.52A184.41 64.59 -40 1 0 379.43 111.44A184.41 64.59 -40 1 0 96.9 348.52Z" fill="#C8102E"/><path fill-rule="evenodd" d="M95.19 351.5A187.64 67.91 -40 1 0 382.67 110.27A187.64 67.91 -40 1 0 95.19 351.5ZM95.72 350.5A186.59 66.81 -40 1 0 381.59 110.63A186.59 66.81 -40 1 0 95.72 350.5Z" fill="#E3163A"/></g></g><g id="shine"><circle cx="95.46" cy="351" r="61.2" fill="url(#shine)"/><circle cx="382.13" cy="110.45" r="61.2" fill="url(#shine)"/></g><g id="edges" stroke="url(#silver-edge)" stroke-width="9.5"><line x1="243.09" y1="72.16" x2="154.78" y2="104.3"/><line x1="128.87" y1="126.04" x2="81.89" y2="207.42"/><line x1="76.01" y1="240.73" x2="92.33" y2="333.27"/><line x1="109.24" y1="362.57" x2="181.23" y2="422.97"/><line x1="213.02" y1="434.54" x2="306.98" y2="434.54"/><line x1="338.77" y1="422.97" x2="410.76" y2="362.57"/><line x1="427.67" y1="333.27" x2="443.99" y2="240.73"/><line x1="438.11" y1="207.42" x2="391.13" y2="126.04"/><line x1="365.22" y1="104.3" x2="276.91" y2="72.16"/></g><g id="nodes"><circle cx="260" cy="66" r="18" fill="none" stroke="url(#silver-ring)" stroke-width="9.5"/><circle cx="137.87" cy="110.45" r="18" fill="none" stroke="url(#silver-ring)" stroke-width="9.5"/><circle cx="72.89" cy="223.01" r="18" fill="none" stroke="url(#silver-ring)" stroke-width="9.5"/><circle cx="95.46" cy="351" r="18" fill="none" stroke="url(#silver-ring)" stroke-width="9.5"/><circle cx="195.02" cy="434.54" r="18" fill="none" stroke="url(#silver-ring)" stroke-width="9.5"/><circle cx="324.98" cy="434.54" r="18" fill="none" stroke="url(#silver-ring)" stroke-width="9.5"/><circle cx="424.54" cy="351" r="18" fill="none" stroke="url(#silver-ring)" stroke-width="9.5"/><circle cx="447.11" cy="223.01" r="18" fill="none" stroke="url(#silver-ring)" stroke-width="9.5"/><circle cx="382.13" cy="110.45" r="18" fill="none" stroke="url(#silver-ring)" stroke-width="9.5"/></g><g id="lit"><circle cx="95.46" cy="351" r="27.5" fill="url(#lit)"/><circle cx="382.13" cy="110.45" r="27.5" fill="url(#lit)"/></g><g id="hop-front" mask="url(#m-front)"><path fill-rule="evenodd" d="M89.28 360.75A198.11 78.86 -40 1 0 392.81 106.06A198.11 78.86 -40 1 0 89.28 360.75ZM101.63 341.25A176.11 55.86 -40 1 0 371.45 114.84A176.11 55.86 -40 1 0 101.63 341.25Z" fill="#F0284A" opacity="0.23" filter="url(#blur-wide)"/><path fill-rule="evenodd" d="M92.86 355.3A191.86 72.24 -40 1 0 386.81 108.64A191.86 72.24 -40 1 0 92.86 355.3ZM98.05 346.7A182.36 62.49 -40 1 0 377.45 112.26A182.36 62.49 -40 1 0 98.05 346.7Z" fill="#C8102E" opacity="0.40" filter="url(#blur-mid)"/><path fill-rule="evenodd" d="M94.01 353.48A189.81 70.14 -40 1 0 384.82 109.46A189.81 70.14 -40 1 0 94.01 353.48ZM96.9 348.52A184.41 64.59 -40 1 0 379.43 111.44A184.41 64.59 -40 1 0 96.9 348.52Z" fill="#E3163A"/><path fill-rule="evenodd" d="M95.19 351.5A187.64 67.91 -40 1 0 382.67 110.27A187.64 67.91 -40 1 0 95.19 351.5ZM95.72 350.5A186.59 66.81 -40 1 0 381.59 110.63A186.59 66.81 -40 1 0 95.72 350.5Z" fill="#FFB3BF"/></g><path id="wordmark" fill="url(#word)" d="M643.92 263.16C634.8 268.99 624.78 271.36 614.02 271.36C584.66 271.36 563.32 250.39 563.32 222.31C563.32 193.86 584.66 173.25 614.2 173.25C628.6 173.25 640.64 177.81 651.22 188.02L662.52 176.72C650.85 163.77 633.71 157.02 613.47 157.02C573.9 157.02 545.09 184.56 545.09 222.31C545.09 260.06 573.9 287.59 613.1 287.59C630.98 287.59 648.66 282.12 661.43 271.36V221.58H643.92ZM745.86 270.27 825.73 170.88V158.48H722.7V174.35H801.66L721.42 273.73V286.13H828.1V270.27ZM889.01 286.13H976.36V270.27H907.25V158.48H889.01Z"/><path id="name" fill="#4A5462" d="M567.61 348.28C565.53 349.61 563.25 350.15 560.79 350.15C554.1 350.15 549.24 345.37 549.24 338.97C549.24 332.49 554.1 327.79 560.83 327.79C564.12 327.79 566.86 328.83 569.27 331.16L571.85 328.58C569.19 325.63 565.28 324.1 560.67 324.1C551.65 324.1 545.09 330.37 545.09 338.97C545.09 347.57 551.65 353.85 560.59 353.85C564.66 353.85 568.69 352.6 571.6 350.15V338.81H567.61ZM585.27 335.19V331.49H581.45V353.52H585.44V342.55C585.44 337.73 588.1 335.11 592.38 335.11C592.67 335.11 592.96 335.11 593.29 335.15V331.28C589.43 331.28 586.68 332.61 585.27 335.19ZM607.09 331.28C603.56 331.28 600.27 332.28 597.99 334.11L599.65 337.1C601.35 335.65 604.01 334.73 606.63 334.73C610.58 334.73 612.53 336.69 612.53 340.05V340.84H606.21C599.65 340.84 597.36 343.75 597.36 347.28C597.36 351.11 600.52 353.77 605.51 353.77C608.96 353.77 611.41 352.6 612.74 350.61V353.52H616.52V340.22C616.52 334.19 613.11 331.28 607.09 331.28ZM606.17 350.69C603.14 350.69 601.31 349.32 601.31 347.12C601.31 345.25 602.43 343.71 606.38 343.71H612.53V346.79C611.53 349.32 609.17 350.69 606.17 350.69ZM638.09 331.28C634.85 331.28 632.02 332.53 630.23 334.98V331.49H626.41V361.58H630.4V350.19C632.23 352.56 634.97 353.77 638.09 353.77C644.53 353.77 649.23 349.28 649.23 342.5C649.23 335.77 644.53 331.28 638.09 331.28ZM637.76 350.28C633.56 350.28 630.36 347.2 630.36 342.5C630.36 337.85 633.56 334.78 637.76 334.78C642 334.78 645.19 337.85 645.19 342.5C645.19 347.2 642 350.28 637.76 350.28ZM669.01 331.28C665.64 331.28 662.9 332.49 661.24 334.61V322.68H657.25V353.52H661.24V342.17C661.24 337.39 663.98 334.86 668.22 334.86C672 334.86 674.16 336.98 674.16 341.3V353.52H678.15V340.84C678.15 334.36 674.37 331.28 669.01 331.28ZM705.29 349.9 723.49 327.25V324.43H700.01V328.04H718L699.72 350.69V353.52H724.03V349.9ZM750.91 342.63C750.91 335.86 746.39 331.28 740.03 331.28C733.67 331.28 728.97 335.98 728.97 342.5C728.97 349.07 733.71 353.77 740.82 353.77C744.47 353.77 747.51 352.52 749.5 350.19L747.3 347.62C745.68 349.4 743.52 350.28 740.94 350.28C736.58 350.28 733.46 347.7 732.96 343.83H750.83C750.87 343.46 750.91 342.96 750.91 342.63ZM740.03 334.65C743.89 334.65 746.68 337.27 747.09 340.97H732.96C733.38 337.23 736.2 334.65 740.03 334.65ZM770.07 349.36C769.24 350.03 768.12 350.4 766.96 350.4C764.75 350.4 763.51 349.07 763.51 346.7V334.78H769.82V331.49H763.51V326.67H759.52V331.49H755.78V334.78H759.52V346.87C759.52 351.31 762.05 353.77 766.5 353.77C768.29 353.77 770.11 353.27 771.32 352.23ZM786.65 331.28C783.12 331.28 779.84 332.28 777.55 334.11L779.22 337.1C780.92 335.65 783.58 334.73 786.2 334.73C790.14 334.73 792.1 336.69 792.1 340.05V340.84H785.78C779.22 340.84 776.93 343.75 776.93 347.28C776.93 351.11 780.09 353.77 785.07 353.77C788.52 353.77 790.98 352.6 792.31 350.61V353.52H796.09V340.22C796.09 334.19 792.68 331.28 786.65 331.28ZM785.74 350.69C782.71 350.69 780.88 349.32 780.88 347.12C780.88 345.25 782 343.71 785.95 343.71H792.1V346.79C791.1 349.32 788.73 350.69 785.74 350.69ZM820.23 353.52H840.14V349.9H824.39V324.43H820.23ZM848.82 327.25C850.4 327.25 851.52 326.09 851.52 324.59C851.52 323.18 850.36 322.06 848.82 322.06C847.28 322.06 846.12 323.22 846.12 324.68C846.12 326.13 847.28 327.25 848.82 327.25ZM846.83 353.52H850.82V331.49H846.83ZM872.59 331.28C869.48 331.28 866.73 332.45 864.9 334.82V322.68H860.92V353.52H864.74V350.03C866.53 352.52 869.35 353.77 872.59 353.77C879.03 353.77 883.73 349.24 883.73 342.5C883.73 335.77 879.03 331.28 872.59 331.28ZM872.26 350.28C868.06 350.28 864.86 347.2 864.86 342.5C864.86 337.81 868.06 334.78 872.26 334.78C876.5 334.78 879.7 337.81 879.7 342.5C879.7 347.2 876.5 350.28 872.26 350.28ZM895.57 335.19V331.49H891.75V353.52H895.74V342.55C895.74 337.73 898.4 335.11 902.68 335.11C902.97 335.11 903.26 335.11 903.59 335.15V331.28C899.73 331.28 896.99 332.61 895.57 335.19ZM917.39 331.28C913.86 331.28 910.58 332.28 908.29 334.11L909.95 337.1C911.66 335.65 914.32 334.73 916.93 334.73C920.88 334.73 922.83 336.69 922.83 340.05V340.84H916.52C909.95 340.84 907.67 343.75 907.67 347.28C907.67 351.11 910.82 353.77 915.81 353.77C919.26 353.77 921.71 352.6 923.04 350.61V353.52H926.82V340.22C926.82 334.19 923.42 331.28 917.39 331.28ZM916.48 350.69C913.44 350.69 911.61 349.32 911.61 347.12C911.61 345.25 912.74 343.71 916.68 343.71H922.83V346.79C921.84 349.32 919.47 350.69 916.48 350.69ZM940.54 335.19V331.49H936.71V353.52H940.7V342.55C940.7 337.73 943.36 335.11 947.64 335.11C947.93 335.11 948.23 335.11 948.56 335.15V331.28C944.69 331.28 941.95 332.61 940.54 335.19ZM972.45 331.49 964.85 349.11 957.16 331.49H953L962.73 353.48L962.02 355.01C960.94 357.55 959.74 358.42 957.83 358.42C956.33 358.42 954.96 357.84 953.88 356.8L952.17 359.79C953.55 361.12 955.71 361.83 957.83 361.83C961.19 361.83 963.73 360.37 965.68 355.72L976.36 331.49Z"/></svg>
